<svg width="900" height="260" viewBox="0 0 900 260" fill="none" xmlns="http://www.w3.org/2000/svg">
  <defs>
    <clipPath id="card">
      <rect width="900" height="260" rx="22"/>
    </clipPath>
    <radialGradient id="blobA" cx="50%" cy="50%" r="50%">
      <stop offset="0%" stop-color="#2AA0E6" stop-opacity="0.55"/>
      <stop offset="100%" stop-color="#2AA0E6" stop-opacity="0"/>
    </radialGradient>
    <radialGradient id="blobB" cx="50%" cy="50%" r="50%">
      <stop offset="0%" stop-color="#8B7CF6" stop-opacity="0.45"/>
      <stop offset="100%" stop-color="#8B7CF6" stop-opacity="0"/>
    </radialGradient>
    <linearGradient id="underline" x1="0" y1="0" x2="1" y2="0">
      <stop offset="0%" stop-color="#2AA0E6"/>
      <stop offset="100%" stop-color="#8B7CF6"/>
    </linearGradient>
    <linearGradient id="nameGrad" x1="0" y1="0" x2="1" y2="0">
      <stop offset="0%" stop-color="#EAF6FF"/>
      <stop offset="55%" stop-color="#A8D8F8"/>
      <stop offset="100%" stop-color="#C4B8FF"/>
    </linearGradient>
    <filter id="soften" x="-50%" y="-50%" width="200%" height="200%">
      <feGaussianBlur stdDeviation="30"/>
    </filter>
  </defs>

  <g clip-path="url(#card)">
    <!-- deep ink background -->
    <rect width="900" height="260" fill="#0E1524"/>

    <!-- soft aurora blobs, drifting slowly -->
    <circle cx="180" cy="60" r="190" fill="url(#blobA)" filter="url(#soften)">
      <animate attributeName="cx" values="180;260;180" dur="11s" repeatCount="indefinite"/>
    </circle>
    <circle cx="740" cy="210" r="210" fill="url(#blobB)" filter="url(#soften)">
      <animate attributeName="cx" values="740;660;740" dur="13s" repeatCount="indefinite"/>
    </circle>

    <!-- a wisp of fog drifting across the bottom -->
    <ellipse cx="450" cy="265" rx="420" ry="55" fill="#FFFFFF" opacity="0.06" filter="url(#soften)">
      <animate attributeName="cx" values="380;520;380" dur="16s" repeatCount="indefinite"/>
    </ellipse>

    <!-- twinkling sparkles -->
    <g fill="#BFE3FF">
      <path d="M96 178 C97.5 172 99 170.5 105 169 C99 167.5 97.5 166 96 160 C94.5 166 93 167.5 87 169 C93 170.5 94.5 172 96 178 Z">
        <animate attributeName="opacity" values="0;1;0" dur="3.2s" repeatCount="indefinite"/>
      </path>
      <path d="M792 84 C793.8 76.8 795.6 75 802.8 73.2 C795.6 71.4 793.8 69.6 792 62.4 C790.2 69.6 788.4 71.4 781.2 73.2 C788.4 75 790.2 76.8 792 84 Z">
        <animate attributeName="opacity" values="0;1;0" dur="4.1s" begin="1.1s" repeatCount="indefinite"/>
      </path>
      <path d="M700 190 C701.2 185.2 702.4 184 707.2 182.8 C702.4 181.6 701.2 180.4 700 175.6 C698.8 180.4 697.6 181.6 692.8 182.8 C697.6 184 698.8 185.2 700 190 Z">
        <animate attributeName="opacity" values="0;0.9;0" dur="2.7s" begin="0.6s" repeatCount="indefinite"/>
      </path>
      <path d="M150 84 C151.2 79.2 152.4 78 157.2 76.8 C152.4 75.6 151.2 74.4 150 69.6 C148.8 74.4 147.6 75.6 142.8 76.8 C147.6 78 148.8 79.2 150 84 Z">
        <animate attributeName="opacity" values="0;0.8;0" dur="3.7s" begin="2s" repeatCount="indefinite"/>
      </path>
    </g>

    <!-- "Diana Kao" — Avenir Next Demi Bold, converted to outlines so it
         renders identically everywhere, with a soft aurora gradient -->
    <g transform="translate(309.7 118)">
      <path d="M41.11 -19.93 Q41.11 -14.73 39.17 -10.95 Q37.24 -7.17 34.07 -4.73 Q30.91 -2.29 26.93 -1.15 Q22.96 -0.00 18.87 -0.00 L4.09 -0.00 L4.09 -39.65 L18.43 -39.65 Q22.63 -39.65 26.71 -38.67 Q30.80 -37.69 33.99 -35.42 Q37.19 -33.15 39.15 -29.34 Q41.11 -25.53 41.11 -19.93 Z M31.13 -19.93 Q31.13 -23.29 30.04 -25.51 Q28.95 -27.72 27.13 -29.03 Q25.31 -30.35 22.99 -30.91 Q20.67 -31.47 18.20 -31.47 L13.44 -31.47 L13.44 -8.29 L17.97 -8.29 Q20.55 -8.29 22.93 -8.87 Q25.31 -9.47 27.13 -10.81 Q28.95 -12.15 30.04 -14.39 Q31.13 -16.63 31.13 -19.93 Z M56.90 -36.79 Q56.90 -35.73 56.48 -34.80 Q56.06 -33.88 55.36 -33.21 Q54.66 -32.53 53.68 -32.14 Q52.70 -31.75 51.63 -31.75 Q49.39 -31.75 47.88 -33.23 Q46.37 -34.72 46.37 -36.79 Q46.37 -37.80 46.76 -38.72 Q47.15 -39.65 47.88 -40.32 Q48.61 -40.99 49.56 -41.41 Q50.51 -41.83 51.63 -41.83 Q52.70 -41.83 53.68 -41.44 Q54.66 -41.05 55.36 -40.37 Q56.06 -39.71 56.48 -38.78 Q56.90 -37.85 56.90 -36.79 Z M47.04 -0.00 L47.04 -27.89 L56.22 -27.89 L56.22 -0.00 L47.04 -0.00 Z M79.97 -12.15 L78.79 -12.15 Q77.28 -12.15 75.74 -12.01 Q74.20 -11.87 72.99 -11.48 Q71.79 -11.09 71.01 -10.33 Q70.23 -9.57 70.23 -8.35 Q70.23 -7.56 70.59 -7.00 Q70.95 -6.44 71.51 -6.10 Q72.07 -5.77 72.80 -5.63 Q73.53 -5.49 74.20 -5.49 Q77.00 -5.49 78.48 -7.03 Q79.97 -8.57 79.97 -11.20 L79.97 -12.15 Z M63.11 -24.08 Q65.57 -26.43 68.84 -27.61 Q72.13 -28.79 75.55 -28.79 Q79.07 -28.79 81.51 -27.91 Q83.95 -27.05 85.45 -25.23 Q86.97 -23.41 87.67 -20.63 Q88.37 -17.87 88.37 -14.05 L88.37 -0.00 L79.97 -0.00 L79.97 -2.97 L79.80 -2.97 Q78.73 -1.23 76.58 -0.28 Q74.43 0.67 71.91 0.67 Q70.23 0.67 68.43 0.22 Q66.64 -0.23 65.15 -1.23 Q63.67 -2.24 62.72 -3.92 Q61.77 -5.60 61.77 -8.07 Q61.77 -11.09 63.42 -12.93 Q65.07 -14.79 67.67 -15.79 Q70.28 -16.80 73.47 -17.13 Q76.67 -17.47 79.69 -17.47 L79.69 -17.92 Q79.69 -19.99 78.22 -20.97 Q76.77 -21.95 74.65 -21.95 Q72.69 -21.95 70.87 -21.11 Q69.05 -20.27 67.76 -19.09 L63.11 -24.08 Z M113.51 -0.00 L113.51 -15.23 Q113.51 -16.41 113.32 -17.47 Q113.12 -18.53 112.67 -19.35 Q112.22 -20.16 111.41 -20.63 Q110.60 -21.11 109.37 -21.11 Q108.14 -21.11 107.21 -20.63 Q106.29 -20.16 105.67 -19.32 Q105.06 -18.48 104.75 -17.39 Q104.44 -16.29 104.44 -15.12 L104.44 -0.00 L95.20 -0.00 L95.20 -27.89 L104.10 -27.89 L104.10 -24.03 L104.22 -24.03 Q104.72 -24.92 105.53 -25.79 Q106.34 -26.65 107.44 -27.27 Q108.53 -27.89 109.82 -28.28 Q111.10 -28.67 112.56 -28.67 Q115.36 -28.67 117.32 -27.66 Q119.28 -26.65 120.48 -25.06 Q121.69 -23.47 122.21 -21.39 Q122.75 -19.32 122.75 -17.25 L122.75 -0.00 L113.51 -0.00 Z M146.16 -12.15 L144.99 -12.15 Q143.47 -12.15 141.93 -12.01 Q140.39 -11.87 139.18 -11.48 Q137.99 -11.09 137.20 -10.33 Q136.42 -9.57 136.42 -8.35 Q136.42 -7.56 136.78 -7.00 Q137.15 -6.44 137.71 -6.10 Q138.27 -5.77 138.99 -5.63 Q139.72 -5.49 140.39 -5.49 Q143.19 -5.49 144.67 -7.03 Q146.16 -8.57 146.16 -11.20 L146.16 -12.15 Z M129.31 -24.08 Q131.76 -26.43 135.04 -27.61 Q138.32 -28.79 141.74 -28.79 Q145.27 -28.79 147.70 -27.91 Q150.14 -27.05 151.64 -25.23 Q153.16 -23.41 153.86 -20.63 Q154.56 -17.87 154.56 -14.05 L154.56 -0.00 L146.16 -0.00 L146.16 -2.97 L145.99 -2.97 Q144.92 -1.23 142.77 -0.28 Q140.62 0.67 138.10 0.67 Q136.42 0.67 134.63 0.22 Q132.83 -0.23 131.34 -1.23 Q129.87 -2.24 128.91 -3.92 Q127.96 -5.60 127.96 -8.07 Q127.96 -11.09 129.61 -12.93 Q131.27 -14.79 133.86 -15.79 Q136.47 -16.80 139.67 -17.13 Q142.86 -17.47 145.88 -17.47 L145.88 -17.92 Q145.88 -19.99 144.42 -20.97 Q142.96 -21.95 140.84 -21.95 Q138.88 -21.95 137.06 -21.11 Q135.24 -20.27 133.95 -19.09 L129.31 -24.08 Z M200.14 -0.00 L185.41 -18.25 L185.30 -18.25 L185.30 -0.00 L175.89 -0.00 L175.89 -39.65 L185.30 -39.65 L185.30 -23.52 L185.48 -23.52 L199.64 -39.65 L211.62 -39.65 L194.54 -21.39 L212.64 -0.00 L200.14 -0.00 Z M231.67 -12.15 L230.50 -12.15 Q228.98 -12.15 227.44 -12.01 Q225.90 -11.87 224.70 -11.48 Q223.50 -11.09 222.71 -10.33 Q221.93 -9.57 221.93 -8.35 Q221.93 -7.56 222.29 -7.00 Q222.66 -6.44 223.22 -6.10 Q223.78 -5.77 224.50 -5.63 Q225.23 -5.49 225.90 -5.49 Q228.70 -5.49 230.18 -7.03 Q231.67 -8.57 231.67 -11.20 L231.67 -12.15 Z M214.82 -24.08 Q217.28 -26.43 220.55 -27.61 Q223.83 -28.79 227.25 -28.79 Q230.78 -28.79 233.21 -27.91 Q235.65 -27.05 237.16 -25.23 Q238.67 -23.41 239.37 -20.63 Q240.07 -17.87 240.07 -14.05 L240.07 -0.00 L231.67 -0.00 L231.67 -2.97 L231.50 -2.97 Q230.44 -1.23 228.28 -0.28 Q226.13 0.67 223.61 0.67 Q221.93 0.67 220.14 0.22 Q218.34 -0.23 216.86 -1.23 Q215.38 -2.24 214.42 -3.92 Q213.47 -5.60 213.47 -8.07 Q213.47 -11.09 215.12 -12.93 Q216.78 -14.79 219.38 -15.79 Q221.98 -16.80 225.18 -17.13 Q228.37 -17.47 231.39 -17.47 L231.39 -17.92 Q231.39 -19.99 229.93 -20.97 Q228.48 -21.95 226.35 -21.95 Q224.39 -21.95 222.57 -21.11 Q220.75 -20.27 219.46 -19.09 L214.82 -24.08 Z M276.47 -14.05 Q276.47 -10.64 275.24 -7.87 Q274.01 -5.09 271.88 -3.16 Q269.75 -1.23 266.95 -0.17 Q264.15 0.89 260.96 0.89 Q257.83 0.89 254.99 -0.17 Q252.17 -1.23 250.07 -3.16 Q247.97 -5.09 246.73 -7.87 Q245.51 -10.64 245.51 -14.05 Q245.51 -17.47 246.73 -20.21 Q247.97 -22.96 250.07 -24.86 Q252.17 -26.77 254.99 -27.77 Q257.83 -28.79 260.96 -28.79 Q264.15 -28.79 266.95 -27.77 Q269.75 -26.77 271.88 -24.86 Q274.01 -22.96 275.24 -20.21 Q276.47 -17.47 276.47 -14.05 Z M267.63 -14.05 Q267.63 -15.40 267.17 -16.69 Q266.73 -17.97 265.89 -18.95 Q265.05 -19.93 263.81 -20.55 Q262.59 -21.17 260.96 -21.17 Q259.33 -21.17 258.10 -20.55 Q256.87 -19.93 256.06 -18.95 Q255.25 -17.97 254.83 -16.69 Q254.41 -15.40 254.41 -14.05 Q254.41 -12.71 254.83 -11.42 Q255.25 -10.13 256.09 -9.10 Q256.93 -8.07 258.16 -7.45 Q259.39 -6.83 261.01 -6.83 Q262.64 -6.83 263.87 -7.45 Q265.11 -8.07 265.95 -9.10 Q266.79 -10.13 267.21 -11.42 Q267.63 -12.71 267.63 -14.05 Z" fill="url(#nameGrad)"/>
    </g>

    <!-- "UX DESIGNER" — outlined glyphs with hand-set letterspacing -->
    <g transform="translate(354.6 160)">
      <path d="M10.09 -4.01 Q10.09 -3.04 9.77 -2.26 Q9.45 -1.47 8.85 -0.91 Q8.25 -0.34 7.40 -0.03 Q6.56 0.29 5.52 0.29 Q4.47 0.29 3.63 -0.03 Q2.79 -0.34 2.20 -0.91 Q1.62 -1.47 1.30 -2.26 Q0.99 -3.04 0.99 -4.01 L0.99 -10.62 L3.54 -10.62 L3.54 -4.21 Q3.54 -3.78 3.65 -3.39 Q3.76 -3.00 4.00 -2.69 Q4.23 -2.39 4.61 -2.21 Q4.99 -2.02 5.54 -2.02 Q6.08 -2.02 6.46 -2.21 Q6.84 -2.39 7.08 -2.69 Q7.32 -3.00 7.42 -3.39 Q7.53 -3.78 7.53 -4.21 L7.53 -10.62 L10.09 -10.62 L10.09 -4.01 L10.09 -4.01 Z M26.59 -0.00 L24.27 -3.75 L22.03 -0.00 L18.97 -0.00 L22.69 -5.61 L19.27 -10.62 L22.36 -10.62 L24.34 -7.32 L26.29 -10.62 L29.28 -10.62 L25.92 -5.61 L29.76 -0.00 L26.59 -0.00 Z M66.77 -5.34 Q66.77 -3.94 66.25 -2.93 Q65.73 -1.92 64.89 -1.27 Q64.04 -0.61 62.97 -0.31 Q61.91 -0.00 60.81 -0.00 L56.85 -0.00 L56.85 -10.62 L60.69 -10.62 Q61.82 -10.62 62.91 -10.36 Q64.01 -10.09 64.86 -9.49 Q65.72 -8.88 66.24 -7.86 Q66.77 -6.84 66.77 -5.34 Z M64.10 -5.34 Q64.10 -6.24 63.80 -6.83 Q63.51 -7.42 63.03 -7.78 Q62.54 -8.13 61.92 -8.28 Q61.29 -8.43 60.63 -8.43 L59.36 -8.43 L59.36 -2.22 L60.57 -2.22 Q61.26 -2.22 61.90 -2.38 Q62.54 -2.54 63.03 -2.89 Q63.51 -3.26 63.80 -3.86 Q64.10 -4.46 64.10 -5.34 Z M76.86 -0.00 L76.86 -10.62 L84.01 -10.62 L84.01 -8.44 L79.34 -8.44 L79.34 -6.45 L83.75 -6.45 L83.75 -4.39 L79.34 -4.39 L79.34 -2.19 L84.28 -2.19 L84.28 -0.00 L76.86 -0.00 Z M99.98 -7.86 Q99.65 -8.28 99.12 -8.53 Q98.59 -8.78 98.09 -8.78 Q97.84 -8.78 97.57 -8.73 Q97.31 -8.69 97.10 -8.56 Q96.89 -8.43 96.75 -8.23 Q96.61 -8.03 96.61 -7.71 Q96.61 -7.44 96.72 -7.26 Q96.83 -7.08 97.05 -6.94 Q97.26 -6.81 97.56 -6.70 Q97.86 -6.59 98.24 -6.46 Q98.78 -6.29 99.36 -6.07 Q99.95 -5.85 100.43 -5.49 Q100.91 -5.13 101.23 -4.60 Q101.54 -4.06 101.54 -3.27 Q101.54 -2.36 101.20 -1.69 Q100.86 -1.02 100.29 -0.58 Q99.73 -0.15 98.99 0.06 Q98.26 0.27 97.48 0.27 Q96.34 0.27 95.27 -0.13 Q94.21 -0.53 93.50 -1.26 L95.18 -2.97 Q95.57 -2.49 96.21 -2.17 Q96.84 -1.84 97.48 -1.84 Q97.76 -1.84 98.03 -1.90 Q98.30 -1.96 98.50 -2.10 Q98.71 -2.24 98.83 -2.46 Q98.94 -2.69 98.94 -3.00 Q98.94 -3.30 98.79 -3.51 Q98.64 -3.72 98.37 -3.89 Q98.09 -4.06 97.68 -4.21 Q97.26 -4.35 96.74 -4.51 Q96.23 -4.68 95.74 -4.91 Q95.26 -5.13 94.87 -5.48 Q94.49 -5.84 94.26 -6.34 Q94.03 -6.84 94.03 -7.56 Q94.03 -8.44 94.38 -9.07 Q94.74 -9.71 95.33 -10.11 Q95.91 -10.51 96.65 -10.70 Q97.39 -10.89 98.14 -10.89 Q99.04 -10.89 99.97 -10.56 Q100.91 -10.23 101.61 -9.59 L99.98 -7.86 Z M111.71 -0.00 L111.71 -10.62 L114.29 -10.62 L114.29 -0.00 L111.71 -0.00 Z M133.82 -0.64 Q133.04 -0.24 132.00 0.01 Q130.95 0.27 129.72 0.27 Q128.45 0.27 127.38 -0.13 Q126.30 -0.54 125.53 -1.27 Q124.76 -2.01 124.32 -3.04 Q123.89 -4.06 123.89 -5.33 Q123.89 -6.60 124.33 -7.63 Q124.78 -8.67 125.55 -9.40 Q126.33 -10.12 127.38 -10.51 Q128.43 -10.91 129.65 -10.91 Q130.91 -10.91 131.99 -10.52 Q133.07 -10.14 133.74 -9.49 L132.12 -7.65 Q131.75 -8.09 131.13 -8.36 Q130.52 -8.64 129.74 -8.64 Q129.06 -8.64 128.49 -8.39 Q127.92 -8.14 127.50 -7.70 Q127.08 -7.26 126.85 -6.65 Q126.62 -6.04 126.62 -5.33 Q126.62 -4.59 126.83 -3.97 Q127.04 -3.36 127.45 -2.92 Q127.86 -2.48 128.47 -2.23 Q129.08 -1.98 129.86 -1.98 Q130.31 -1.98 130.71 -2.05 Q131.12 -2.11 131.46 -2.26 L131.46 -4.20 L129.44 -4.20 L129.44 -6.27 L133.82 -6.27 L133.82 -0.64 L133.82 -0.64 Z M150.66 -0.00 L146.39 -6.94 L146.34 -6.94 L146.41 -0.00 L143.91 -0.00 L143.91 -10.62 L146.84 -10.62 L151.10 -3.69 L151.14 -3.69 L151.08 -10.62 L153.58 -10.62 L153.58 -0.00 L150.66 -0.00 Z M163.67 -0.00 L163.67 -10.62 L170.81 -10.62 L170.81 -8.44 L166.14 -8.44 L166.14 -6.45 L170.56 -6.45 L170.56 -4.39 L166.14 -4.39 L166.14 -2.19 L171.08 -2.19 L171.08 -0.00 L163.67 -0.00 Z M186.86 -0.00 L184.57 -4.21 L183.69 -4.21 L183.69 -0.00 L181.18 -0.00 L181.18 -10.62 L185.23 -10.62 Q185.99 -10.62 186.72 -10.46 Q187.44 -10.31 188.02 -9.93 Q188.60 -9.56 188.94 -8.94 Q189.29 -8.32 189.29 -7.41 Q189.29 -6.33 188.71 -5.59 Q188.12 -4.86 187.09 -4.54 L189.86 -0.00 L186.86 -0.00 Z M186.76 -7.36 Q186.76 -7.74 186.60 -7.97 Q186.44 -8.21 186.19 -8.33 Q185.94 -8.46 185.64 -8.51 Q185.33 -8.55 185.04 -8.55 L183.68 -8.55 L183.68 -6.08 L184.89 -6.08 Q185.21 -6.08 185.54 -6.13 Q185.87 -6.18 186.14 -6.31 Q186.41 -6.45 186.58 -6.71 Q186.76 -6.96 186.76 -7.36 Z" fill="#9FB3C8"/>
    </g>

    <rect x="410" y="180" width="80" height="3" rx="1.5" fill="url(#underline)"/>

    <g transform="translate(353.9 214)">
      <path d="M3.26 0.21 Q1.98 0.21 1.23 -0.54 Q0.49 -1.29 0.49 -2.67 Q0.49 -3.58 0.77 -4.42 Q1.05 -5.26 1.56 -5.91 Q2.06 -6.56 2.84 -6.97 Q3.61 -7.39 4.56 -7.39 Q5.60 -7.39 6.15 -6.95 Q6.69 -6.50 6.69 -5.83 Q6.69 -5.33 6.45 -4.94 Q6.22 -4.56 5.74 -4.56 Q5.35 -4.56 5.15 -4.76 Q4.95 -4.96 4.95 -5.20 Q4.95 -5.44 5.11 -5.84 Q5.27 -6.25 5.37 -6.50 Q5.29 -6.69 5.01 -6.79 Q4.73 -6.88 4.43 -6.88 Q3.44 -6.88 2.71 -5.72 Q1.99 -4.56 1.99 -2.87 Q1.99 -1.83 2.46 -1.22 Q2.92 -0.61 3.71 -0.61 Q4.42 -0.61 4.98 -0.99 Q5.53 -1.37 6.04 -2.06 L6.45 -1.76 Q5.95 -0.96 5.08 -0.38 Q4.21 0.21 3.26 0.21 Z M11.20 -11.23 L9.15 -2.41 Q9.09 -2.13 9.03 -1.85 Q8.97 -1.57 8.97 -1.40 Q8.97 -0.98 9.16 -0.83 Q9.34 -0.67 9.76 -0.67 Q9.91 -0.67 10.20 -0.71 Q10.49 -0.75 10.63 -0.80 L10.53 -0.33 Q9.87 -0.07 9.51 0.04 Q9.15 0.15 8.71 0.15 Q8.12 0.15 7.82 -0.15 Q7.51 -0.45 7.51 -0.90 Q7.51 -1.07 7.55 -1.25 Q7.58 -1.44 7.64 -1.71 L9.42 -9.43 Q9.47 -9.65 9.49 -9.74 Q9.51 -9.83 9.51 -9.96 Q9.51 -10.23 9.42 -10.37 Q9.33 -10.51 9.17 -10.58 Q9.02 -10.65 8.78 -10.67 Q8.55 -10.69 8.31 -10.72 L8.41 -11.17 L11.13 -11.34 L11.20 -11.23 Z M17.86 -5.87 Q17.86 -5.09 17.38 -4.53 Q16.89 -3.98 15.96 -3.65 Q15.28 -3.40 14.58 -3.24 Q13.89 -3.09 13.05 -2.99 Q13.05 -1.83 13.47 -1.22 Q13.90 -0.61 14.73 -0.61 Q15.46 -0.61 16.02 -0.97 Q16.58 -1.34 17.12 -2.06 L17.54 -1.76 Q16.95 -0.86 16.08 -0.33 Q15.20 0.21 14.25 0.21 Q12.96 0.21 12.27 -0.52 Q11.59 -1.24 11.59 -2.58 Q11.59 -3.50 11.88 -4.34 Q12.17 -5.18 12.72 -5.87 Q13.26 -6.56 14.05 -6.97 Q14.84 -7.39 15.79 -7.39 Q16.84 -7.39 17.35 -6.96 Q17.86 -6.53 17.86 -5.87 Z M16.52 -6.05 Q16.52 -6.34 16.43 -6.50 Q16.35 -6.67 16.23 -6.75 Q16.10 -6.83 15.95 -6.86 Q15.81 -6.88 15.65 -6.88 Q14.77 -6.88 14.03 -5.91 Q13.29 -4.94 13.09 -3.50 Q13.60 -3.57 14.25 -3.71 Q14.89 -3.85 15.31 -4.06 Q15.92 -4.38 16.22 -4.88 Q16.52 -5.37 16.52 -6.05 Z M23.25 -0.97 L23.20 -0.97 Q23.04 -0.83 22.82 -0.63 Q22.60 -0.43 22.30 -0.25 Q22.01 -0.07 21.67 0.07 Q21.33 0.21 20.94 0.21 Q19.88 0.21 19.27 -0.56 Q18.67 -1.32 18.67 -2.64 Q18.67 -3.55 19.01 -4.40 Q19.34 -5.26 19.94 -5.94 Q20.50 -6.59 21.28 -6.99 Q22.05 -7.39 22.87 -7.39 Q23.39 -7.39 23.87 -7.25 Q24.34 -7.11 24.61 -6.94 L25.95 -7.28 L26.04 -7.17 L24.93 -2.45 Q24.87 -2.22 24.80 -1.89 Q24.74 -1.57 24.74 -1.41 Q24.74 -1.00 24.92 -0.85 Q25.09 -0.70 25.51 -0.70 Q25.65 -0.70 25.91 -0.75 Q26.16 -0.79 26.30 -0.84 L26.19 -0.37 Q25.53 -0.11 25.21 0.01 Q24.89 0.12 24.43 0.12 Q23.90 0.12 23.59 -0.18 Q23.28 -0.49 23.25 -0.97 Z M24.30 -5.60 Q24.30 -5.84 24.25 -6.06 Q24.20 -6.28 24.04 -6.47 Q23.89 -6.65 23.63 -6.76 Q23.38 -6.87 22.99 -6.87 Q22.46 -6.87 21.95 -6.52 Q21.45 -6.17 21.04 -5.57 Q20.66 -5.02 20.42 -4.23 Q20.18 -3.44 20.18 -2.62 Q20.18 -2.17 20.23 -1.83 Q20.28 -1.49 20.43 -1.20 Q20.57 -0.92 20.83 -0.77 Q21.09 -0.62 21.50 -0.62 Q21.91 -0.62 22.36 -0.85 Q22.81 -1.08 23.37 -1.65 L24.30 -5.60 Z M35.16 -0.85 L35.05 -0.38 Q34.40 -0.12 34.03 0.00 Q33.66 0.12 33.29 0.12 Q32.70 0.12 32.41 -0.18 Q32.12 -0.48 32.12 -0.93 Q32.12 -1.09 32.15 -1.28 Q32.18 -1.48 32.24 -1.74 L32.96 -4.47 Q33.04 -4.79 33.09 -5.05 Q33.13 -5.30 33.13 -5.46 Q33.13 -5.95 32.90 -6.23 Q32.67 -6.52 32.20 -6.52 Q31.76 -6.52 31.20 -6.22 Q30.65 -5.93 30.15 -5.38 L28.92 -0.00 L27.55 -0.00 L28.64 -4.75 Q28.68 -4.92 28.75 -5.25 Q28.82 -5.59 28.82 -5.79 Q28.82 -6.20 28.68 -6.34 Q28.54 -6.48 28.13 -6.48 Q27.96 -6.48 27.71 -6.43 Q27.47 -6.37 27.33 -6.34 L27.44 -6.80 Q28.01 -7.06 28.45 -7.19 Q28.89 -7.31 29.20 -7.31 Q29.78 -7.31 30.03 -6.99 Q30.28 -6.68 30.29 -6.12 L30.34 -6.12 Q31.14 -6.77 31.73 -7.08 Q32.31 -7.39 33.06 -7.39 Q33.77 -7.39 34.16 -6.98 Q34.56 -6.58 34.56 -5.92 Q34.56 -5.79 34.52 -5.45 Q34.48 -5.11 34.39 -4.78 L33.77 -2.43 Q33.71 -2.20 33.64 -1.89 Q33.58 -1.59 33.58 -1.42 Q33.58 -1.00 33.77 -0.85 Q33.95 -0.70 34.37 -0.70 Q34.50 -0.70 34.76 -0.75 Q35.02 -0.80 35.16 -0.85 Z M42.39 -4.14 Q42.39 -3.73 42.09 -3.44 Q41.79 -3.15 41.38 -3.15 Q40.97 -3.15 40.68 -3.44 Q40.38 -3.73 40.38 -4.14 Q40.38 -4.55 40.68 -4.85 Q40.97 -5.15 41.38 -5.15 Q41.79 -5.15 42.09 -4.85 Q42.39 -4.55 42.39 -4.14 Z M59.79 -0.83 L59.68 -0.36 Q59.01 -0.09 58.60 0.02 Q58.20 0.12 57.91 0.12 Q57.33 0.12 57.03 -0.18 Q56.74 -0.48 56.74 -0.93 Q56.74 -1.09 56.77 -1.28 Q56.80 -1.48 56.87 -1.74 L57.58 -4.47 Q57.66 -4.79 57.71 -5.05 Q57.76 -5.30 57.76 -5.46 Q57.76 -5.95 57.54 -6.23 Q57.33 -6.52 56.87 -6.52 Q56.38 -6.52 55.91 -6.29 Q55.44 -6.06 54.84 -5.43 L53.57 -0.00 L52.21 -0.00 L53.36 -4.89 Q53.39 -5.05 53.43 -5.23 Q53.46 -5.41 53.46 -5.50 Q53.46 -5.98 53.22 -6.25 Q52.98 -6.52 52.52 -6.52 Q52.11 -6.52 51.60 -6.31 Q51.09 -6.10 50.43 -5.38 L49.19 -0.00 L47.83 -0.00 L48.92 -4.75 Q48.98 -5.00 49.03 -5.29 Q49.09 -5.59 49.09 -5.79 Q49.09 -6.22 48.95 -6.35 Q48.81 -6.49 48.41 -6.49 Q48.24 -6.49 47.99 -6.43 Q47.74 -6.37 47.60 -6.34 L47.71 -6.80 Q48.28 -7.06 48.72 -7.19 Q49.16 -7.31 49.48 -7.31 Q50.06 -7.31 50.31 -6.99 Q50.55 -6.67 50.57 -6.12 L50.61 -6.12 Q51.47 -6.80 52.03 -7.10 Q52.59 -7.39 53.36 -7.39 Q54.01 -7.39 54.41 -7.01 Q54.82 -6.64 54.87 -6.07 L54.90 -6.07 Q55.69 -6.72 56.30 -7.05 Q56.91 -7.39 57.72 -7.39 Q58.43 -7.39 58.80 -6.98 Q59.18 -6.58 59.18 -5.92 Q59.18 -5.79 59.14 -5.45 Q59.10 -5.11 59.01 -4.78 L58.40 -2.43 Q58.33 -2.20 58.27 -1.89 Q58.21 -1.59 58.21 -1.42 Q58.21 -1.00 58.39 -0.85 Q58.56 -0.70 58.98 -0.70 Q59.12 -0.70 59.38 -0.74 Q59.65 -0.78 59.79 -0.83 Z M67.78 -4.51 Q67.78 -3.65 67.49 -2.78 Q67.19 -1.92 66.64 -1.27 Q66.07 -0.59 65.28 -0.19 Q64.48 0.22 63.44 0.22 Q62.22 0.22 61.46 -0.56 Q60.70 -1.35 60.70 -2.67 Q60.70 -3.65 61.02 -4.49 Q61.35 -5.33 61.89 -5.97 Q62.44 -6.61 63.25 -7.00 Q64.06 -7.39 65.00 -7.39 Q66.31 -7.39 67.04 -6.60 Q67.78 -5.80 67.78 -4.51 Z M66.29 -4.79 Q66.29 -5.83 65.91 -6.35 Q65.54 -6.87 64.85 -6.87 Q64.24 -6.87 63.70 -6.50 Q63.16 -6.12 62.78 -5.28 Q62.48 -4.64 62.34 -3.86 Q62.20 -3.08 62.20 -2.42 Q62.20 -1.38 62.56 -0.84 Q62.92 -0.30 63.66 -0.30 Q64.31 -0.30 64.81 -0.71 Q65.32 -1.12 65.63 -1.75 Q65.95 -2.36 66.12 -3.16 Q66.29 -3.96 66.29 -4.79 Z M73.43 -1.00 L73.38 -1.00 Q73.22 -0.86 72.96 -0.64 Q72.71 -0.42 72.43 -0.25 Q72.08 -0.03 71.78 0.09 Q71.48 0.21 71.05 0.21 Q69.99 0.21 69.38 -0.56 Q68.78 -1.33 68.78 -2.64 Q68.78 -3.57 69.11 -4.42 Q69.43 -5.28 70.00 -5.95 Q70.55 -6.59 71.32 -6.99 Q72.09 -7.39 72.94 -7.39 Q73.44 -7.39 73.94 -7.26 Q74.44 -7.13 74.76 -6.94 L75.33 -9.43 Q75.37 -9.62 75.39 -9.73 Q75.41 -9.84 75.41 -9.97 Q75.41 -10.24 75.30 -10.38 Q75.20 -10.52 75.01 -10.58 Q74.83 -10.65 74.52 -10.67 Q74.22 -10.69 73.97 -10.72 L74.07 -11.17 L77.04 -11.34 L77.11 -11.23 L75.08 -2.45 Q75.02 -2.21 74.96 -1.89 Q74.90 -1.58 74.90 -1.42 Q74.90 -1.00 75.07 -0.85 Q75.25 -0.70 75.67 -0.70 Q75.81 -0.70 76.06 -0.75 Q76.32 -0.79 76.46 -0.84 L76.35 -0.37 Q75.73 -0.10 75.33 0.01 Q74.93 0.12 74.58 0.12 Q74.06 0.12 73.74 -0.15 Q73.43 -0.42 73.43 -1.00 Z M74.47 -5.67 Q74.45 -5.88 74.36 -6.08 Q74.26 -6.28 74.11 -6.45 Q73.95 -6.63 73.68 -6.75 Q73.41 -6.87 73.05 -6.87 Q72.48 -6.87 71.98 -6.52 Q71.48 -6.17 71.10 -5.58 Q70.73 -5.02 70.51 -4.22 Q70.29 -3.43 70.29 -2.63 Q70.29 -2.18 70.34 -1.84 Q70.39 -1.50 70.54 -1.20 Q70.68 -0.93 70.93 -0.77 Q71.19 -0.62 71.62 -0.62 Q72.02 -0.62 72.49 -0.86 Q72.96 -1.10 73.54 -1.70 L74.47 -5.67 Z M83.68 -5.87 Q83.68 -5.09 83.19 -4.53 Q82.70 -3.98 81.77 -3.65 Q81.09 -3.40 80.40 -3.24 Q79.70 -3.09 78.86 -2.99 Q78.86 -1.83 79.29 -1.22 Q79.72 -0.61 80.54 -0.61 Q81.28 -0.61 81.84 -0.97 Q82.40 -1.34 82.94 -2.06 L83.36 -1.76 Q82.77 -0.86 81.89 -0.33 Q81.01 0.21 80.07 0.21 Q78.77 0.21 78.09 -0.52 Q77.40 -1.24 77.40 -2.58 Q77.40 -3.50 77.69 -4.34 Q77.98 -5.18 78.54 -5.87 Q79.08 -6.56 79.87 -6.97 Q80.65 -7.39 81.61 -7.39 Q82.66 -7.39 83.17 -6.96 Q83.68 -6.53 83.68 -5.87 Z M82.33 -6.05 Q82.33 -6.34 82.25 -6.50 Q82.17 -6.67 82.05 -6.75 Q81.91 -6.83 81.77 -6.86 Q81.62 -6.88 81.47 -6.88 Q80.59 -6.88 79.85 -5.91 Q79.10 -4.94 78.90 -3.50 Q79.42 -3.57 80.06 -3.71 Q80.71 -3.85 81.13 -4.06 Q81.74 -4.38 82.03 -4.88 Q82.33 -5.37 82.33 -6.05 Z M90.96 -6.20 Q90.96 -5.99 90.90 -5.74 Q90.84 -5.50 90.73 -5.34 Q90.60 -5.14 90.44 -5.03 Q90.29 -4.93 89.99 -4.93 Q89.60 -4.93 89.40 -5.13 Q89.20 -5.33 89.20 -5.57 Q89.20 -5.79 89.31 -6.08 Q89.42 -6.36 89.54 -6.64 Q89.45 -6.64 89.25 -6.59 Q89.05 -6.54 88.76 -6.40 Q88.48 -6.26 88.11 -5.98 Q87.75 -5.70 87.34 -5.25 L86.16 -0.00 L84.80 -0.00 L85.87 -4.75 Q85.91 -4.92 85.97 -5.27 Q86.04 -5.62 86.04 -5.79 Q86.04 -6.20 85.91 -6.34 Q85.77 -6.48 85.35 -6.48 Q85.19 -6.48 84.94 -6.43 Q84.69 -6.37 84.55 -6.34 L84.66 -6.80 Q85.23 -7.06 85.67 -7.19 Q86.11 -7.31 86.43 -7.31 Q87.01 -7.31 87.26 -6.99 Q87.51 -6.67 87.51 -6.04 L87.55 -6.04 Q88.43 -6.79 88.88 -7.09 Q89.33 -7.39 89.82 -7.39 Q90.05 -7.39 90.27 -7.33 Q90.49 -7.27 90.64 -7.13 Q90.81 -6.98 90.88 -6.78 Q90.96 -6.58 90.96 -6.20 Z M99.31 -0.85 L99.20 -0.38 Q98.54 -0.12 98.17 0.00 Q97.81 0.12 97.43 0.12 Q96.85 0.12 96.56 -0.18 Q96.26 -0.48 96.26 -0.93 Q96.26 -1.09 96.29 -1.28 Q96.32 -1.48 96.39 -1.74 L97.10 -4.47 Q97.18 -4.79 97.23 -5.05 Q97.28 -5.30 97.28 -5.46 Q97.28 -5.95 97.05 -6.23 Q96.81 -6.52 96.35 -6.52 Q95.90 -6.52 95.35 -6.22 Q94.79 -5.93 94.30 -5.38 L93.06 -0.00 L91.70 -0.00 L92.79 -4.75 Q92.83 -4.92 92.90 -5.25 Q92.97 -5.59 92.97 -5.79 Q92.97 -6.20 92.83 -6.34 Q92.69 -6.48 92.27 -6.48 Q92.11 -6.48 91.86 -6.43 Q91.61 -6.37 91.47 -6.34 L91.58 -6.80 Q92.15 -7.06 92.59 -7.19 Q93.03 -7.31 93.35 -7.31 Q93.93 -7.31 94.17 -6.99 Q94.42 -6.68 94.44 -6.12 L94.48 -6.12 Q95.29 -6.77 95.87 -7.08 Q96.46 -7.39 97.21 -7.39 Q97.91 -7.39 98.30 -6.98 Q98.70 -6.58 98.70 -5.92 Q98.70 -5.79 98.66 -5.45 Q98.62 -5.11 98.53 -4.78 L97.92 -2.43 Q97.85 -2.20 97.79 -1.89 Q97.73 -1.59 97.73 -1.42 Q97.73 -1.00 97.91 -0.85 Q98.09 -0.70 98.51 -0.70 Q98.65 -0.70 98.91 -0.75 Q99.17 -0.80 99.31 -0.85 Z M106.53 -4.14 Q106.53 -3.73 106.24 -3.44 Q105.94 -3.15 105.53 -3.15 Q105.12 -3.15 104.82 -3.44 Q104.53 -3.73 104.53 -4.14 Q104.53 -4.55 104.82 -4.85 Q105.12 -5.15 105.53 -5.15 Q105.94 -5.15 106.24 -4.85 Q106.53 -4.55 106.53 -4.14 Z M114.79 -6.49 L113.50 -0.44 Q113.16 1.19 112.05 2.22 Q110.95 3.25 109.77 3.25 Q109.13 3.25 108.83 3.01 Q108.52 2.76 108.52 2.39 Q108.52 2.07 108.71 1.83 Q108.90 1.59 109.26 1.59 Q109.49 1.59 109.66 1.69 Q109.83 1.80 109.96 1.95 Q110.07 2.07 110.20 2.29 Q110.33 2.50 110.42 2.65 Q110.98 2.61 111.38 1.89 Q111.78 1.17 112.08 -0.16 L113.42 -6.49 L111.99 -6.49 L112.15 -7.16 L113.56 -7.16 L113.67 -7.65 Q113.84 -8.50 114.22 -9.18 Q114.60 -9.86 115.09 -10.34 Q115.56 -10.81 116.17 -11.08 Q116.77 -11.35 117.33 -11.35 Q117.97 -11.35 118.28 -11.10 Q118.58 -10.85 118.58 -10.48 Q118.58 -10.17 118.40 -9.92 Q118.22 -9.68 117.84 -9.68 Q117.61 -9.68 117.44 -9.78 Q117.27 -9.88 117.14 -10.04 Q117.00 -10.23 116.91 -10.39 Q116.82 -10.55 116.69 -10.74 Q116.18 -10.72 115.80 -10.08 Q115.41 -9.43 115.09 -7.93 L114.93 -7.16 L116.77 -7.16 L116.62 -6.49 L114.79 -6.49 Z M121.27 -1.03 L121.23 -1.03 Q120.89 -0.75 120.58 -0.53 Q120.28 -0.30 119.98 -0.15 Q119.63 0.03 119.34 0.11 Q119.06 0.18 118.59 0.18 Q117.89 0.18 117.50 -0.22 Q117.11 -0.63 117.11 -1.29 Q117.11 -1.46 117.14 -1.71 Q117.17 -1.95 117.28 -2.42 L117.85 -4.75 Q117.93 -5.07 117.97 -5.32 Q118.02 -5.57 118.02 -5.79 Q118.02 -6.20 117.89 -6.34 Q117.75 -6.48 117.33 -6.48 Q117.17 -6.48 116.92 -6.42 Q116.68 -6.36 116.54 -6.32 L116.64 -6.79 Q117.22 -7.05 117.65 -7.18 Q118.09 -7.31 118.35 -7.31 Q118.94 -7.31 119.21 -7.03 Q119.49 -6.76 119.49 -6.26 Q119.49 -6.12 119.46 -5.90 Q119.43 -5.67 119.37 -5.44 L118.72 -2.73 Q118.65 -2.42 118.60 -2.16 Q118.55 -1.89 118.55 -1.75 Q118.55 -1.26 118.76 -0.97 Q118.97 -0.69 119.44 -0.69 Q119.90 -0.69 120.40 -0.93 Q120.89 -1.18 121.39 -1.68 L122.67 -7.19 L123.95 -7.28 L124.04 -7.17 L122.94 -2.45 Q122.87 -2.15 122.81 -1.85 Q122.75 -1.54 122.75 -1.42 Q122.75 -1.00 122.93 -0.85 Q123.11 -0.70 123.53 -0.70 Q123.67 -0.70 123.92 -0.75 Q124.18 -0.79 124.32 -0.84 L124.21 -0.37 Q123.60 -0.12 123.20 -0.00 Q122.79 0.12 122.45 0.12 Q121.85 0.12 121.56 -0.22 Q121.27 -0.56 121.27 -1.03 Z M133.14 -0.85 L133.03 -0.38 Q132.37 -0.12 132.00 0.00 Q131.64 0.12 131.27 0.12 Q130.68 0.12 130.39 -0.18 Q130.09 -0.48 130.09 -0.93 Q130.09 -1.09 130.12 -1.28 Q130.15 -1.48 130.22 -1.74 L130.94 -4.47 Q131.01 -4.79 131.06 -5.05 Q131.11 -5.30 131.11 -5.46 Q131.11 -5.95 130.88 -6.23 Q130.64 -6.52 130.18 -6.52 Q129.74 -6.52 129.18 -6.22 Q128.62 -5.93 128.13 -5.38 L126.89 -0.00 L125.53 -0.00 L126.62 -4.75 Q126.66 -4.92 126.73 -5.25 Q126.80 -5.59 126.80 -5.79 Q126.80 -6.20 126.66 -6.34 Q126.52 -6.48 126.10 -6.48 Q125.94 -6.48 125.69 -6.43 Q125.44 -6.37 125.30 -6.34 L125.41 -6.80 Q125.99 -7.06 126.42 -7.19 Q126.86 -7.31 127.18 -7.31 Q127.76 -7.31 128.01 -6.99 Q128.25 -6.68 128.27 -6.12 L128.31 -6.12 Q129.12 -6.77 129.70 -7.08 Q130.29 -7.39 131.04 -7.39 Q131.74 -7.39 132.14 -6.98 Q132.53 -6.58 132.53 -5.92 Q132.53 -5.79 132.49 -5.45 Q132.45 -5.11 132.36 -4.78 L131.75 -2.43 Q131.68 -2.20 131.62 -1.89 Q131.56 -1.59 131.56 -1.42 Q131.56 -1.00 131.74 -0.85 Q131.92 -0.70 132.34 -0.70 Q132.48 -0.70 132.74 -0.75 Q133.00 -0.80 133.14 -0.85 Z M140.36 -4.14 Q140.36 -3.73 140.07 -3.44 Q139.77 -3.15 139.36 -3.15 Q138.95 -3.15 138.65 -3.44 Q138.36 -3.73 138.36 -4.14 Q138.36 -4.55 138.65 -4.85 Q138.95 -5.15 139.36 -5.15 Q139.77 -5.15 140.07 -4.85 Q140.36 -4.55 140.36 -4.14 Z M153.01 -0.85 L152.90 -0.38 Q152.24 -0.12 151.87 0.00 Q151.51 0.12 151.14 0.12 Q150.55 0.12 150.26 -0.18 Q149.96 -0.48 149.96 -0.93 Q149.96 -1.09 149.99 -1.28 Q150.02 -1.48 150.09 -1.74 L150.81 -4.47 Q150.89 -4.79 150.93 -5.05 Q150.98 -5.30 150.98 -5.46 Q150.98 -5.95 150.75 -6.23 Q150.51 -6.52 150.05 -6.52 Q149.58 -6.52 149.04 -6.22 Q148.49 -5.92 148.00 -5.38 L146.76 -0.00 L145.40 -0.00 L147.58 -9.43 Q147.61 -9.60 147.64 -9.71 Q147.66 -9.83 147.66 -9.96 Q147.66 -10.23 147.58 -10.37 Q147.49 -10.51 147.33 -10.58 Q147.19 -10.65 146.95 -10.67 Q146.70 -10.69 146.46 -10.72 L146.57 -11.17 L149.28 -11.34 L149.35 -11.23 L148.18 -6.16 L148.21 -6.16 Q148.97 -6.77 149.56 -7.08 Q150.15 -7.39 150.91 -7.39 Q151.61 -7.39 152.01 -6.98 Q152.40 -6.58 152.40 -5.92 Q152.40 -5.79 152.36 -5.45 Q152.32 -5.11 152.24 -4.78 L151.62 -2.43 Q151.56 -2.20 151.49 -1.89 Q151.43 -1.59 151.43 -1.42 Q151.43 -1.00 151.61 -0.85 Q151.79 -0.70 152.21 -0.70 Q152.35 -0.70 152.61 -0.75 Q152.87 -0.80 153.01 -0.85 Z M158.61 -1.03 L158.57 -1.03 Q158.23 -0.75 157.92 -0.53 Q157.62 -0.30 157.32 -0.15 Q156.96 0.03 156.68 0.11 Q156.40 0.18 155.93 0.18 Q155.23 0.18 154.84 -0.22 Q154.45 -0.63 154.45 -1.29 Q154.45 -1.46 154.48 -1.71 Q154.51 -1.95 154.62 -2.42 L155.19 -4.75 Q155.27 -5.07 155.31 -5.32 Q155.36 -5.57 155.36 -5.79 Q155.36 -6.20 155.23 -6.34 Q155.09 -6.48 154.67 -6.48 Q154.51 -6.48 154.26 -6.42 Q154.01 -6.36 153.88 -6.32 L153.98 -6.79 Q154.56 -7.05 154.99 -7.18 Q155.43 -7.31 155.69 -7.31 Q156.28 -7.31 156.55 -7.03 Q156.83 -6.76 156.83 -6.26 Q156.83 -6.12 156.80 -5.90 Q156.77 -5.67 156.71 -5.44 L156.06 -2.73 Q155.99 -2.42 155.94 -2.16 Q155.89 -1.89 155.89 -1.75 Q155.89 -1.26 156.10 -0.97 Q156.31 -0.69 156.77 -0.69 Q157.24 -0.69 157.74 -0.93 Q158.23 -1.18 158.73 -1.68 L160.01 -7.19 L161.29 -7.28 L161.38 -7.17 L160.28 -2.45 Q160.21 -2.15 160.15 -1.85 Q160.09 -1.54 160.09 -1.42 Q160.09 -1.00 160.27 -0.85 Q160.45 -0.70 160.87 -0.70 Q161.01 -0.70 161.26 -0.75 Q161.52 -0.79 161.66 -0.84 L161.55 -0.37 Q160.94 -0.12 160.53 -0.00 Q160.13 0.12 159.78 0.12 Q159.19 0.12 158.90 -0.22 Q158.61 -0.56 158.61 -1.03 Z M174.83 -0.83 L174.72 -0.36 Q174.05 -0.09 173.64 0.02 Q173.24 0.12 172.95 0.12 Q172.37 0.12 172.08 -0.18 Q171.78 -0.48 171.78 -0.93 Q171.78 -1.09 171.81 -1.28 Q171.84 -1.48 171.91 -1.74 L172.62 -4.47 Q172.71 -4.79 172.75 -5.05 Q172.80 -5.30 172.80 -5.46 Q172.80 -5.95 172.59 -6.23 Q172.38 -6.52 171.91 -6.52 Q171.42 -6.52 170.95 -6.29 Q170.48 -6.06 169.89 -5.43 L168.61 -0.00 L167.25 -0.00 L168.40 -4.89 Q168.44 -5.05 168.47 -5.23 Q168.50 -5.41 168.50 -5.50 Q168.50 -5.98 168.26 -6.25 Q168.03 -6.52 167.56 -6.52 Q167.15 -6.52 166.64 -6.31 Q166.14 -6.10 165.47 -5.38 L164.23 -0.00 L162.87 -0.00 L163.96 -4.75 Q164.02 -5.00 164.07 -5.29 Q164.13 -5.59 164.13 -5.79 Q164.13 -6.22 163.99 -6.35 Q163.85 -6.49 163.45 -6.49 Q163.29 -6.49 163.03 -6.43 Q162.78 -6.37 162.64 -6.34 L162.75 -6.80 Q163.32 -7.06 163.76 -7.19 Q164.20 -7.31 164.52 -7.31 Q165.10 -7.31 165.35 -6.99 Q165.59 -6.67 165.61 -6.12 L165.65 -6.12 Q166.52 -6.80 167.07 -7.10 Q167.63 -7.39 168.40 -7.39 Q169.05 -7.39 169.46 -7.01 Q169.86 -6.64 169.91 -6.07 L169.95 -6.07 Q170.73 -6.72 171.34 -7.05 Q171.95 -7.39 172.76 -7.39 Q173.47 -7.39 173.85 -6.98 Q174.22 -6.58 174.22 -5.92 Q174.22 -5.79 174.18 -5.45 Q174.14 -5.11 174.05 -4.78 L173.44 -2.43 Q173.37 -2.20 173.31 -1.89 Q173.25 -1.59 173.25 -1.42 Q173.25 -1.00 173.43 -0.85 Q173.61 -0.70 174.02 -0.70 Q174.16 -0.70 174.43 -0.74 Q174.69 -0.78 174.83 -0.83 Z M180.35 -0.97 L180.30 -0.97 Q180.14 -0.83 179.92 -0.63 Q179.69 -0.43 179.39 -0.25 Q179.11 -0.07 178.77 0.07 Q178.43 0.21 178.04 0.21 Q176.97 0.21 176.37 -0.56 Q175.77 -1.32 175.77 -2.64 Q175.77 -3.55 176.10 -4.40 Q176.44 -5.26 177.03 -5.94 Q177.60 -6.59 178.37 -6.99 Q179.15 -7.39 179.97 -7.39 Q180.49 -7.39 180.96 -7.25 Q181.44 -7.11 181.71 -6.94 L183.05 -7.28 L183.14 -7.17 L182.02 -2.45 Q181.96 -2.22 181.90 -1.89 Q181.84 -1.57 181.84 -1.41 Q181.84 -1.00 182.01 -0.85 Q182.19 -0.70 182.61 -0.70 Q182.75 -0.70 183.00 -0.75 Q183.26 -0.79 183.40 -0.84 L183.29 -0.37 Q182.63 -0.11 182.31 0.01 Q181.99 0.12 181.52 0.12 Q181.00 0.12 180.69 -0.18 Q180.38 -0.49 180.35 -0.97 Z M181.40 -5.60 Q181.40 -5.84 181.35 -6.06 Q181.30 -6.28 181.13 -6.47 Q180.99 -6.65 180.73 -6.76 Q180.48 -6.87 180.09 -6.87 Q179.55 -6.87 179.05 -6.52 Q178.54 -6.17 178.14 -5.57 Q177.76 -5.02 177.52 -4.23 Q177.28 -3.44 177.28 -2.62 Q177.28 -2.17 177.33 -1.83 Q177.38 -1.49 177.53 -1.20 Q177.66 -0.92 177.93 -0.77 Q178.19 -0.62 178.59 -0.62 Q179.00 -0.62 179.45 -0.85 Q179.90 -1.08 180.47 -1.65 L181.40 -5.60 Z M192.26 -0.85 L192.15 -0.38 Q191.49 -0.12 191.12 0.00 Q190.76 0.12 190.39 0.12 Q189.80 0.12 189.51 -0.18 Q189.21 -0.48 189.21 -0.93 Q189.21 -1.09 189.24 -1.28 Q189.27 -1.48 189.34 -1.74 L190.06 -4.47 Q190.14 -4.79 190.18 -5.05 Q190.23 -5.30 190.23 -5.46 Q190.23 -5.95 190.00 -6.23 Q189.76 -6.52 189.30 -6.52 Q188.86 -6.52 188.30 -6.22 Q187.74 -5.93 187.25 -5.38 L186.01 -0.00 L184.65 -0.00 L185.74 -4.75 Q185.78 -4.92 185.85 -5.25 Q185.92 -5.59 185.92 -5.79 Q185.92 -6.20 185.78 -6.34 Q185.64 -6.48 185.22 -6.48 Q185.06 -6.48 184.81 -6.43 Q184.56 -6.37 184.42 -6.34 L184.53 -6.80 Q185.11 -7.06 185.54 -7.19 Q185.99 -7.31 186.30 -7.31 Q186.88 -7.31 187.13 -6.99 Q187.37 -6.68 187.39 -6.12 L187.43 -6.12 Q188.24 -6.77 188.83 -7.08 Q189.41 -7.39 190.16 -7.39 Q190.86 -7.39 191.26 -6.98 Q191.65 -6.58 191.65 -5.92 Q191.65 -5.79 191.61 -5.45 Q191.57 -5.11 191.48 -4.78 L190.87 -2.43 Q190.80 -2.20 190.74 -1.89 Q190.68 -1.59 190.68 -1.42 Q190.68 -1.00 190.86 -0.85 Q191.05 -0.70 191.46 -0.70 Q191.60 -0.70 191.86 -0.75 Q192.12 -0.80 192.26 -0.85 Z" fill="#8A9DB5"/>
    </g>
  </g>
</svg>
